<?xml version="1.0" encoding="UTF-8"?>
<svg xmlns="http://www.w3.org/2000/svg" xmlns:xlink="http://www.w3.org/1999/xlink" width="46px" height="48px" viewBox="0 0 46 47" version="1.1">
<g id="surface1">
<path style=" stroke:none;fill-rule:nonzero;fill:rgb(86.27451%,92.54902%,100%);fill-opacity:1;" d="M 23 30.347656 C 22.550781 30.347656 22.117188 30.195312 21.773438 29.917969 L 10.273438 20.515625 C 9.882812 20.195312 9.636719 19.738281 9.589844 19.242188 C 9.542969 18.746094 9.699219 18.25 10.023438 17.867188 C 10.347656 17.480469 10.816406 17.238281 11.324219 17.195312 C 11.832031 17.148438 12.335938 17.300781 12.726562 17.621094 L 23 26.042969 L 33.273438 17.921875 C 33.46875 17.765625 33.695312 17.648438 33.9375 17.578125 C 34.179688 17.507812 34.433594 17.484375 34.683594 17.511719 C 34.933594 17.539062 35.179688 17.613281 35.402344 17.730469 C 35.621094 17.851562 35.816406 18.011719 35.976562 18.203125 C 36.152344 18.398438 36.285156 18.625 36.367188 18.871094 C 36.449219 19.117188 36.476562 19.375 36.453125 19.632812 C 36.425781 19.890625 36.347656 20.140625 36.21875 20.367188 C 36.089844 20.59375 35.917969 20.792969 35.707031 20.949219 L 24.207031 30.027344 C 23.851562 30.265625 23.425781 30.378906 23 30.347656 Z M 23 30.347656 "/>
</g>
</svg>
