<svg width="48" height="49" viewBox="0 0 48 49" fill="none" xmlns="http://www.w3.org/2000/svg">
<path d="M24 44.1428C31.952 44.1428 40 41.3948 40 36.1428V12.1428C40 6.89082 31.952 4.14282 24 4.14282C16.048 4.14282 8 6.89082 8 12.1428V36.1428C8 41.3948 16.048 44.1428 24 44.1428ZM24 40.1428C16.556 40.1428 12 37.5528 12 36.1428V33.6068C15.082 35.2828 19.554 36.1428 24 36.1428C28.446 36.1428 32.918 35.2828 36 33.6068V36.1428C36 37.5528 31.444 40.1428 24 40.1428ZM24 8.14282C31.444 8.14282 36 10.7328 36 12.1428C36 13.5528 31.444 16.1428 24 16.1428C16.556 16.1428 12 13.5528 12 12.1428C12 10.7328 16.556 8.14282 24 8.14282ZM12 17.6068C15.082 19.2828 19.554 20.1428 24 20.1428C28.446 20.1428 32.918 19.2828 36 17.6068V20.1428C36 21.5528 31.444 24.1428 24 24.1428C16.556 24.1428 12 21.5528 12 20.1428V17.6068ZM12 25.6068C15.082 27.2828 19.554 28.1428 24 28.1428C28.446 28.1428 32.918 27.2828 36 25.6068V28.1428C36 29.5528 31.444 32.1428 24 32.1428C16.556 32.1428 12 29.5528 12 28.1428V25.6068Z" fill="currentColor"/>
</svg>
