<svg xmlns="http://www.w3.org/2000/svg" xmlns:xlink="http://www.w3.org/1999/xlink" width="32" height="32" version="1.1" viewBox="0 0 32 32"><g id="surface1"><path style="stroke:none;fill-rule:nonzero;fill-opacity:1" d="M 31.789062 9.09375 C 31.582031 8.613281 31.25 8.207031 30.824219 7.917969 C 30.613281 7.773438 30.375 7.664062 30.125 7.582031 C 29.875 7.5 29.605469 7.460938 29.332031 7.460938 C 28.96875 7.460938 28.613281 7.539062 28.292969 7.675781 C 27.8125 7.882812 27.40625 8.210938 27.117188 8.636719 C 26.976562 8.851562 26.863281 9.085938 26.78125 9.335938 C 26.699219 9.585938 26.664062 9.855469 26.664062 10.132812 C 26.664062 10.476562 26.730469 10.804688 26.851562 11.113281 L 21.242188 16.71875 C 21.179688 16.695312 21.125 16.675781 21.0625 16.648438 C 20.8125 16.570312 20.542969 16.53125 20.269531 16.53125 C 19.925781 16.53125 19.59375 16.601562 19.289062 16.71875 L 15.28125 12.710938 C 15.304688 12.648438 15.332031 12.585938 15.351562 12.523438 C 15.429688 12.273438 15.46875 12.007812 15.46875 11.730469 C 15.46875 11.367188 15.394531 11.011719 15.257812 10.695312 C 15.050781 10.210938 14.71875 9.804688 14.292969 9.519531 C 14.082031 9.375 13.84375 9.261719 13.59375 9.179688 C 13.34375 9.101562 13.074219 9.0625 12.800781 9.0625 C 12.4375 9.0625 12.082031 9.136719 11.761719 9.273438 C 11.28125 9.480469 10.875 9.8125 10.585938 10.238281 C 10.445312 10.449219 10.332031 10.6875 10.25 10.9375 C 10.167969 11.1875 10.132812 11.457031 10.132812 11.730469 C 10.132812 12.070312 10.199219 12.40625 10.320312 12.707031 L 3.644531 19.382812 C 3.585938 19.355469 3.523438 19.335938 3.460938 19.320312 C 3.210938 19.238281 2.945312 19.199219 2.667969 19.199219 C 2.304688 19.199219 1.949219 19.273438 1.632812 19.414062 C 1.148438 19.617188 0.742188 19.949219 0.457031 20.375 C 0.3125 20.585938 0.199219 20.824219 0.117188 21.074219 C 0.0390625 21.324219 0 21.59375 0 21.867188 C 0 22.230469 0.0742188 22.585938 0.210938 22.90625 C 0.417969 23.386719 0.75 23.792969 1.175781 24.082031 C 1.386719 24.226562 1.625 24.335938 1.875 24.417969 C 2.125 24.5 2.394531 24.539062 2.667969 24.539062 C 3.03125 24.539062 3.386719 24.460938 3.707031 24.324219 C 4.1875 24.117188 4.59375 23.789062 4.882812 23.363281 C 5.023438 23.148438 5.136719 22.914062 5.21875 22.664062 C 5.300781 22.414062 5.335938 22.144531 5.335938 21.867188 C 5.335938 21.523438 5.269531 21.195312 5.148438 20.886719 L 11.824219 14.210938 C 11.886719 14.238281 11.945312 14.257812 12.007812 14.28125 C 12.257812 14.363281 12.523438 14.398438 12.800781 14.398438 C 13.136719 14.398438 13.46875 14.332031 13.769531 14.210938 L 17.78125 18.226562 C 17.757812 18.28125 17.738281 18.34375 17.71875 18.40625 C 17.636719 18.65625 17.601562 18.925781 17.601562 19.199219 C 17.601562 19.5625 17.675781 19.917969 17.8125 20.238281 C 18.019531 20.71875 18.351562 21.125 18.773438 21.414062 C 18.988281 21.554688 19.226562 21.667969 19.476562 21.75 C 19.726562 21.832031 19.992188 21.867188 20.269531 21.867188 C 20.632812 21.867188 20.988281 21.792969 21.304688 21.65625 C 21.789062 21.449219 22.195312 21.117188 22.480469 20.695312 C 22.625 20.480469 22.738281 20.242188 22.820312 19.992188 C 22.898438 19.742188 22.9375 19.476562 22.9375 19.199219 C 22.9375 18.863281 22.867188 18.523438 22.75 18.226562 L 28.355469 12.617188 C 28.414062 12.644531 28.476562 12.664062 28.539062 12.679688 C 28.789062 12.761719 29.054688 12.800781 29.332031 12.800781 C 29.695312 12.800781 30.050781 12.726562 30.367188 12.585938 C 30.851562 12.382812 31.257812 12.050781 31.542969 11.625 C 31.6875 11.414062 31.800781 11.175781 31.882812 10.925781 C 31.960938 10.675781 32 10.40625 32 10.132812 C 32 9.769531 31.925781 9.414062 31.789062 9.09375 Z M 3.164062 22.074219 C 3.125 22.167969 3.054688 22.25 2.96875 22.3125 C 2.925781 22.34375 2.882812 22.363281 2.832031 22.382812 C 2.78125 22.394531 2.730469 22.40625 2.675781 22.40625 C 2.601562 22.40625 2.53125 22.394531 2.46875 22.363281 C 2.375 22.324219 2.292969 22.257812 2.230469 22.167969 C 2.199219 22.125 2.179688 22.082031 2.164062 22.03125 C 2.148438 21.980469 2.136719 21.929688 2.136719 21.875 C 2.136719 21.800781 2.148438 21.730469 2.179688 21.667969 C 2.21875 21.574219 2.289062 21.492188 2.375 21.429688 C 2.417969 21.398438 2.460938 21.382812 2.511719 21.363281 C 2.5625 21.351562 2.613281 21.335938 2.667969 21.335938 C 2.742188 21.335938 2.8125 21.351562 2.875 21.382812 C 2.96875 21.417969 3.050781 21.488281 3.113281 21.574219 C 3.144531 21.617188 3.164062 21.664062 3.179688 21.710938 C 3.195312 21.761719 3.207031 21.8125 3.207031 21.867188 C 3.207031 21.945312 3.195312 22.011719 3.164062 22.074219 Z M 13.101562 12.175781 C 13.054688 12.207031 13.011719 12.226562 12.960938 12.242188 C 12.914062 12.257812 12.863281 12.269531 12.804688 12.269531 C 12.730469 12.269531 12.664062 12.257812 12.601562 12.226562 C 12.507812 12.1875 12.425781 12.117188 12.363281 12.03125 C 12.332031 11.988281 12.3125 11.945312 12.292969 11.894531 C 12.28125 11.84375 12.269531 11.792969 12.269531 11.738281 C 12.269531 11.664062 12.28125 11.59375 12.3125 11.53125 C 12.351562 11.4375 12.417969 11.355469 12.507812 11.292969 C 12.550781 11.261719 12.59375 11.242188 12.644531 11.226562 C 12.695312 11.210938 12.742188 11.199219 12.800781 11.199219 C 12.875 11.199219 12.945312 11.210938 13.007812 11.242188 C 13.101562 11.28125 13.179688 11.351562 13.242188 11.4375 C 13.273438 11.480469 13.292969 11.523438 13.3125 11.574219 C 13.324219 11.625 13.335938 11.675781 13.335938 11.730469 C 13.335938 11.804688 13.324219 11.875 13.292969 11.9375 C 13.257812 12.03125 13.1875 12.113281 13.101562 12.175781 Z M 20.761719 19.40625 C 20.726562 19.5 20.65625 19.582031 20.570312 19.644531 C 20.523438 19.675781 20.480469 19.695312 20.429688 19.710938 C 20.382812 19.726562 20.332031 19.738281 20.273438 19.738281 C 20.199219 19.738281 20.132812 19.726562 20.070312 19.695312 C 19.976562 19.65625 19.894531 19.585938 19.832031 19.5 C 19.800781 19.457031 19.78125 19.414062 19.761719 19.363281 C 19.75 19.3125 19.738281 19.261719 19.738281 19.207031 C 19.738281 19.132812 19.75 19.0625 19.78125 19 C 19.820312 18.90625 19.886719 18.824219 19.976562 18.761719 C 20.019531 18.730469 20.0625 18.710938 20.113281 18.695312 C 20.164062 18.679688 20.210938 18.667969 20.269531 18.667969 C 20.34375 18.667969 20.414062 18.679688 20.476562 18.710938 C 20.570312 18.75 20.648438 18.820312 20.710938 18.90625 C 20.742188 18.949219 20.761719 18.992188 20.78125 19.042969 C 20.792969 19.09375 20.804688 19.144531 20.804688 19.199219 C 20.804688 19.273438 20.792969 19.34375 20.761719 19.40625 Z M 29.824219 10.335938 C 29.789062 10.429688 29.71875 10.511719 29.632812 10.574219 C 29.585938 10.605469 29.542969 10.625 29.492188 10.644531 C 29.445312 10.65625 29.394531 10.667969 29.335938 10.667969 C 29.261719 10.667969 29.195312 10.65625 29.132812 10.625 C 29.039062 10.585938 28.957031 10.519531 28.894531 10.429688 C 28.863281 10.386719 28.84375 10.34375 28.824219 10.292969 C 28.8125 10.242188 28.800781 10.195312 28.800781 10.136719 C 28.800781 10.0625 28.8125 9.992188 28.84375 9.929688 C 28.882812 9.835938 28.949219 9.757812 29.039062 9.695312 C 29.082031 9.664062 29.125 9.644531 29.175781 9.625 C 29.226562 9.613281 29.273438 9.601562 29.332031 9.601562 C 29.40625 9.601562 29.476562 9.613281 29.539062 9.644531 C 29.632812 9.679688 29.710938 9.75 29.773438 9.835938 C 29.804688 9.882812 29.824219 9.925781 29.84375 9.976562 C 29.855469 10.023438 29.867188 10.074219 29.867188 10.132812 C 29.867188 10.207031 29.855469 10.273438 29.824219 10.335938 Z M 29.824219 10.335938"/></g></svg>