<?xml version="1.0" encoding="UTF-8"?>
<svg xmlns="http://www.w3.org/2000/svg" xmlns:xlink="http://www.w3.org/1999/xlink" width="32px" height="32px" viewBox="0 0 32 32" version="1.1">
<g id="surface1">
<path style=" stroke:none;fill-rule:nonzero;fill-opacity:1;" d="M 2 2 C 3.105469 2 4 2.894531 4 4 L 4 25 C 4 25.550781 4.449219 26 5 26 L 30 26 C 31.105469 26 32 26.894531 32 28 C 32 29.105469 31.105469 30 30 30 L 5 30 C 2.238281 30 0 27.761719 0 25 L 0 4 C 0 2.894531 0.894531 2 2 2 Z M 8 8 C 8 6.894531 8.894531 6 10 6 L 22 6 C 23.105469 6 24 6.894531 24 8 C 24 9.105469 23.105469 10 22 10 L 10 10 C 8.894531 10 8 9.105469 8 8 Z M 18 12 C 19.105469 12 20 12.894531 20 14 C 20 15.105469 19.105469 16 18 16 L 10 16 C 8.894531 16 8 15.105469 8 14 C 8 12.894531 8.894531 12 10 12 Z M 26 18 C 27.105469 18 28 18.894531 28 20 C 28 21.105469 27.105469 22 26 22 L 10 22 C 8.894531 22 8 21.105469 8 20 C 8 18.894531 8.894531 18 10 18 Z M 26 18 "/>
</g>
</svg>
