<?xml version="1.0" encoding="UTF-8"?>
<svg xmlns="http://www.w3.org/2000/svg" xmlns:xlink="http://www.w3.org/1999/xlink" width="48px" height="48px" viewBox="0 0 48 48" version="1.1">
<g id="surface1">
<path fill="#DCECFF" d="M 3 3 C 4.65625 3 6 4.34375 6 6 L 6 37.5 C 6 38.324219 6.671875 39 7.5 39 L 45 39 C 46.660156 39 48 40.339844 48 42 C 48 43.660156 46.660156 45 45 45 L 7.5 45 C 3.359375 45 0 41.644531 0 37.5 L 0 6 C 0 4.34375 1.34375 3 3 3 Z M 12 12 C 12 10.339844 13.339844 9 15 9 L 33 9 C 34.660156 9 36 10.339844 36 12 C 36 13.660156 34.660156 15 33 15 L 15 15 C 13.339844 15 12 13.660156 12 12 Z M 27 18 C 28.660156 18 30 19.339844 30 21 C 30 22.660156 28.660156 24 27 24 L 15 24 C 13.339844 24 12 22.660156 12 21 C 12 19.339844 13.339844 18 15 18 Z M 39 27 C 40.660156 27 42 28.339844 42 30 C 42 31.660156 40.660156 33 39 33 L 15 33 C 13.339844 33 12 31.660156 12 30 C 12 28.339844 13.339844 27 15 27 Z M 39 27 "/>
</g>
</svg>
