<svg width="48" height="49" viewBox="0 0 48 49" fill="none" xmlns="http://www.w3.org/2000/svg">
<path d="M24 3.14282C12.4031 3.14282 3 12.5459 3 24.1428C3 35.7397 12.4031 45.1428 24 45.1428C35.5969 45.1428 45 35.7397 45 24.1428C45 12.5459 35.5969 3.14282 24 3.14282ZM24 41.5803C14.3719 41.5803 6.5625 33.7709 6.5625 24.1428C6.5625 14.5147 14.3719 6.70532 24 6.70532C33.6281 6.70532 41.4375 14.5147 41.4375 24.1428C41.4375 33.7709 33.6281 41.5803 24 41.5803ZM26.2359 23.0553L25.0453 22.7788V16.4834C26.8266 16.7272 27.9281 17.8428 28.1156 19.2116C28.1391 19.3991 28.2984 19.535 28.4859 19.535H30.5906C30.8109 19.535 30.9844 19.3428 30.9656 19.1225C30.6797 16.2022 28.275 14.3272 25.0641 14.0038V12.4709C25.0641 12.2647 24.8953 12.0959 24.6891 12.0959H23.3719C23.1656 12.0959 22.9969 12.2647 22.9969 12.4709V14.0178C19.6781 14.3413 17.0812 16.1741 17.0812 19.5959C17.0812 22.7647 19.4156 24.2928 21.8672 24.8788L23.025 25.1741V31.8631C20.9531 31.5866 19.7906 30.4803 19.5516 28.9897C19.5234 28.8116 19.3641 28.6803 19.1813 28.6803H17.0156C16.7953 28.6803 16.6219 28.8678 16.6406 29.0881C16.8516 31.6663 18.8063 34.0381 22.9781 34.3428V35.8147C22.9781 36.0209 23.1469 36.1897 23.3531 36.1897H24.6844C24.8906 36.1897 25.0594 36.0209 25.0594 35.81L25.05 34.3241C28.7203 34.0006 31.3453 32.0366 31.3453 28.5116C31.3406 25.2584 29.2734 23.8053 26.2359 23.0553V23.0553ZM23.0203 22.2959C22.7578 22.2209 22.5375 22.1506 22.3172 22.0616C20.7328 21.4897 19.9969 20.5663 19.9969 19.3756C19.9969 17.6741 21.2859 16.7038 23.0203 16.4834V22.2959ZM25.0453 31.8772V25.61C25.1906 25.6522 25.3219 25.685 25.4578 25.7131C27.675 26.3881 28.4203 27.3256 28.4203 28.7647C28.4203 30.5975 27.0422 31.6991 25.0453 31.8772Z" fill="#dcecff"/>
</svg>
