<svg width="24" height="18" viewBox="0 0 24 18" fill="none" xmlns="http://www.w3.org/2000/svg">
<path d="M22.2857 0H1.71429C1.25963 0 0.823593 0.180612 0.502103 0.502103C0.180612 0.823593 0 1.25963 0 1.71429V15.4286C0 15.8832 0.180612 16.3193 0.502103 16.6408C0.823593 16.9622 1.25963 17.1429 1.71429 17.1429H22.2857C22.7404 17.1429 23.1764 16.9622 23.4979 16.6408C23.8194 16.3193 24 15.8832 24 15.4286V1.71429C24 1.25963 23.8194 0.823593 23.4979 0.502103C23.1764 0.180612 22.7404 0 22.2857 0ZM20.4 1.71429L12 7.52571L3.6 1.71429H20.4ZM1.71429 15.4286V2.49429L11.5114 9.27429C11.6549 9.37382 11.8254 9.42716 12 9.42716C12.1746 9.42716 12.3451 9.37382 12.4886 9.27429L22.2857 2.49429V15.4286H1.71429Z" fill="currentColor"/>
</svg>