<svg width="48" height="49" viewBox="0 0 48 49" fill="none" xmlns="http://www.w3.org/2000/svg">
<path d="M0 15.1428C0.000732469 18.6144 1.20514 21.9784 3.40803 24.6616C5.61091 27.3448 8.67597 29.1811 12.081 29.8578C12.2749 27.7084 12.8265 25.6065 13.713 23.6388C11.085 22.7508 9.396 20.7348 9 17.8728H7.5V16.5948H8.898V15.2928C8.898 15.1548 8.898 15.0138 8.91 14.8878H7.5V13.6068H9.033C9.708 9.86283 12.639 7.64283 17.043 7.64283C17.991 7.64283 18.813 7.73583 19.5 7.89783V10.0968C18.6976 9.9183 17.8769 9.83573 17.055 9.85083C14.298 9.85083 12.441 11.2488 11.853 13.6068H17.604V14.8878H11.664C11.655 15.0258 11.655 15.1788 11.655 15.3288V16.5948H17.604V17.8758H11.79C12.144 19.6818 13.194 20.9658 14.805 21.5628C16.3846 18.9467 18.557 16.7385 21.1469 15.1163C23.7368 13.494 26.6718 12.5033 29.715 12.2238C28.9792 8.58036 26.9174 5.33962 23.929 3.12937C20.9405 0.919107 17.2381 -0.103359 13.5389 0.260026C9.83968 0.62341 6.40699 2.34678 3.90574 5.09631C1.40449 7.84584 0.0127109 11.4258 0 15.1428H0ZM48 31.6428C48 36.0189 46.2616 40.2157 43.1673 43.3101C40.0729 46.4044 35.8761 48.1428 31.5 48.1428C27.1239 48.1428 22.9271 46.4044 19.8327 43.3101C16.7384 40.2157 15 36.0189 15 31.6428C15 27.2668 16.7384 23.0699 19.8327 19.9756C22.9271 16.8812 27.1239 15.1428 31.5 15.1428C35.8761 15.1428 40.0729 16.8812 43.1673 19.9756C46.2616 23.0699 48 27.2668 48 31.6428V31.6428ZM24.75 35.6088C24.957 38.1138 26.988 40.0638 30.642 40.2948V42.1428H32.262V40.2828C36.039 40.0248 38.25 38.0628 38.25 35.2128C38.25 32.6178 36.561 31.2828 33.54 30.5928L32.262 30.2928V25.2648C33.882 25.4448 34.914 26.3058 35.16 27.4998H38.004C37.794 25.0878 35.667 23.2008 32.262 22.9938V21.1428H30.642V23.0298C27.414 23.3388 25.218 25.2258 25.218 27.8958C25.218 30.2568 26.85 31.7598 29.568 32.3748L30.642 32.6298V37.9698C28.98 37.7298 27.882 36.8418 27.633 35.6088H24.75ZM30.63 29.9238C29.034 29.5638 28.17 28.8318 28.17 27.7278C28.17 26.4978 29.103 25.5708 30.642 25.3008V29.9208H30.627L30.63 29.9238ZM32.496 33.0558C34.431 33.4908 35.325 34.1958 35.325 35.4438C35.325 36.8658 34.215 37.8438 32.265 38.0238V33.0018L32.496 33.0558Z" fill="#dcecff"/>
</svg>
