<?xml version="1.0" encoding="UTF-8"?>
<svg xmlns="http://www.w3.org/2000/svg" xmlns:xlink="http://www.w3.org/1999/xlink" width="24px" height="24px" viewBox="0 0 24 24" version="1.1">
<g id="surface1">
<path style=" stroke:none;" d="M 21.871094 11.5 C 21.230469 10.390625 17.710938 4.820312 11.730469 5 C 6.199219 5.140625 3 10 2.128906 11.5 C 1.953125 11.808594 1.953125 12.191406 2.128906 12.5 C 2.761719 13.589844 6.128906 19 12.019531 19 L 12.269531 19 C 17.800781 18.859375 21.011719 14 21.871094 12.5 C 22.046875 12.191406 22.046875 11.808594 21.871094 11.5 Z M 12.21875 17 C 7.910156 17.101562 5.101562 13.410156 4.21875 12 C 5.21875 10.390625 7.828125 7.101562 11.828125 7 C 16.121094 6.890625 18.941406 10.589844 19.828125 12 C 18.800781 13.609375 16.21875 16.898438 12.21875 17 Z M 12.21875 17 "/>
<path style=" stroke:none;" d="M 12 8.5 C 10.066406 8.5 8.5 10.066406 8.5 12 C 8.5 13.933594 10.066406 15.5 12 15.5 C 13.933594 15.5 15.5 13.933594 15.5 12 C 15.5 10.066406 13.933594 8.5 12 8.5 Z M 12 13.5 C 11.171875 13.5 10.5 12.828125 10.5 12 C 10.5 11.171875 11.171875 10.5 12 10.5 C 12.828125 10.5 13.5 11.171875 13.5 12 C 13.5 12.828125 12.828125 13.5 12 13.5 Z M 12 13.5 "/>
</g>
</svg>
