<svg xmlns="http://www.w3.org/2000/svg" xmlns:xlink="http://www.w3.org/1999/xlink" width="24" height="24" version="1.1" viewBox="0 0 24 24"><g id="surface1"><path style="stroke:none" d="M 4.710938 3.289062 C 4.316406 2.898438 3.683594 2.898438 3.289062 3.289062 C 2.898438 3.683594 2.898438 4.316406 3.289062 4.710938 L 8.921875 10.339844 C 8.1875 11.699219 8.4375 13.378906 9.527344 14.472656 C 10.621094 15.5625 12.300781 15.8125 13.660156 15.078125 L 19.289062 20.710938 C 19.476562 20.898438 19.734375 21.003906 20 21.003906 C 20.265625 21.003906 20.523438 20.898438 20.710938 20.710938 C 20.898438 20.523438 21.003906 20.265625 21.003906 20 C 21.003906 19.734375 20.898438 19.476562 20.710938 19.289062 Z M 12 13.5 C 11.171875 13.5 10.5 12.828125 10.5 12 L 10.5 11.929688 L 12.058594 13.488281 Z M 12 13.5"/><path style="stroke:none" d="M 12.21875 17 C 7.921875 17.101562 5.101562 13.410156 4.21875 12 C 4.847656 11 5.597656 10.085938 6.460938 9.28125 L 5 7.871094 C 3.871094 8.933594 2.90625 10.15625 2.128906 11.5 C 1.953125 11.808594 1.953125 12.191406 2.128906 12.5 C 2.761719 13.589844 6.128906 19 12.019531 19 L 12.269531 19 C 13.378906 18.96875 14.472656 18.742188 15.5 18.328125 L 13.921875 16.75 C 13.363281 16.894531 12.792969 16.980469 12.21875 17 Z M 21.871094 11.5 C 21.230469 10.390625 17.699219 4.820312 11.730469 5 C 10.621094 5.03125 9.527344 5.257812 8.5 5.671875 L 10.078125 7.25 C 10.636719 7.105469 11.207031 7.019531 11.78125 7 C 16.070312 6.890625 18.890625 10.589844 19.78125 12 C 19.136719 13.003906 18.367188 13.917969 17.488281 14.71875 L 19 16.128906 C 20.144531 15.070312 21.125 13.847656 21.910156 12.5 C 22.078125 12.183594 22.0625 11.800781 21.871094 11.5 Z M 21.871094 11.5"/></g></svg>