<svg width="32" height="32" viewBox="0 0 32 32" fill="none" xmlns="http://www.w3.org/2000/svg">
<path d="M29.9644 15.5117L16.6311 2.1784C16.4645 2.01285 16.2393 1.91992 16.0044 1.91992C15.7696 1.91992 15.5443 2.01285 15.3778 2.1784L2.04443 15.5117C1.8988 15.6818 1.82271 15.9005 1.83135 16.1242C1.83999 16.3479 1.93273 16.5602 2.09104 16.7185C2.24934 16.8768 2.46156 16.9695 2.68527 16.9781C2.90898 16.9868 3.12772 16.9107 3.29776 16.7651L16 4.06285L28.7022 16.774C28.8723 16.9196 29.091 16.9957 29.3147 16.987C29.5384 16.9784 29.7506 16.8857 29.9089 16.7274C30.0672 16.569 30.16 16.3568 30.1686 16.1331C30.1773 15.9094 30.1012 15.6907 29.9555 15.5206L29.9644 15.5117Z"/>
<path d="M24.8889 28.5872H20.4444V19.6983H11.5555V28.5872H7.11109V16.1428L5.33331 17.9206V28.5872C5.33331 29.0587 5.52061 29.5109 5.85401 29.8443C6.18741 30.1777 6.63959 30.365 7.11109 30.365H13.3333V21.4761H18.6666V30.365H24.8889C25.3604 30.365 25.8125 30.1777 26.1459 29.8443C26.4793 29.5109 26.6666 29.0587 26.6666 28.5872V17.7072L24.8889 15.9294V28.5872Z"/>
</svg>
