<svg width="48" height="48" viewBox="0 0 48 48" fill="none" xmlns="http://www.w3.org/2000/svg">
<g clip-path="url(#clip0_103_32)">
<path d="M3.26248 5.4C1.6781 5.775 0.440601 7.04063 0.103101 8.60625C-0.0468994 9.30938 -0.0468994 38.6906 0.103101 39.3938C0.346851 40.5375 1.23748 41.7188 2.23123 42.225C3.31873 42.7781 2.0531 42.75 24.3562 42.75H44.8125V37.9688V33.1875H46.4062H48V26.8125V20.4375H46.4062H44.8125V15.6563V10.875H43.2187H41.625V8.0625V5.25L22.7156 5.25938C6.91873 5.26875 3.71248 5.2875 3.26248 5.4ZM38.8125 9.46875V10.875H21.3656H3.91873L3.54373 10.6688C3.12185 10.425 2.81248 9.91875 2.81248 9.45938C2.81248 9.00938 3.16873 8.46563 3.59998 8.25C3.98435 8.0625 4.12498 8.0625 21.4031 8.0625H38.8125V9.46875ZM5.55935 13.6594L7.78123 13.7063V26.8219V39.9469L5.77498 39.9188C3.54373 39.8906 3.48748 39.8719 3.0281 39.1875L2.81248 38.8781V26.175V13.4813L3.07498 13.5469C3.2156 13.5844 4.33123 13.6313 5.55935 13.6594ZM42 17.0625V20.4375H40.2187C38.9531 20.4375 38.2219 20.4844 37.7156 20.5875C33.6281 21.4313 31.4437 25.875 33.2906 29.6063C34.0781 31.2094 35.7 32.5313 37.425 32.9625C37.8187 33.0563 38.6625 33.1219 40.0125 33.1594L42 33.2156V36.5719V39.9375L26.325 39.9188L10.6406 39.8906L10.6125 26.7844L10.5937 13.6875H26.2969H42V17.0625ZM45.1875 26.8125V30.375H42.1219C40.425 30.375 38.775 30.3281 38.4375 30.2719C37.2562 30.0844 36.2437 29.3156 35.7375 28.2375C35.5219 27.7781 35.4844 27.5813 35.4844 26.8125C35.4844 26.025 35.5125 25.8469 35.7562 25.3406C36.1875 24.4125 37.1812 23.5781 38.1281 23.3531C38.325 23.3063 39.9937 23.2688 41.8406 23.2594L45.1875 23.25V26.8125Z" fill="#DCECFF"/>
<path d="M21 18.9375V19.7812H19.0312H17.0625V21.1875V22.5937H17.8594H18.6562V26.7656V30.9375H17.8594H17.0625V32.3437V33.75H19.0312H21V34.6406V35.5312H22.4062H23.8125V34.6406V33.75H24.2719C25.2844 33.75 26.4656 33.1781 27.2344 32.325C28.0312 31.4437 28.3687 30.3937 28.2844 29.0812C28.2469 28.425 28.1812 28.1812 27.9 27.6187C27.7219 27.2437 27.3844 26.7375 27.15 26.4937L26.7375 26.0437L26.9719 25.5375C27.3187 24.7781 27.4312 23.9531 27.3 23.2312C27.15 22.4344 26.7094 21.5719 26.175 21.0187C25.6969 20.5312 24.7406 19.9969 24.1687 19.9125L23.8125 19.8469V18.975V18.0938H22.4062H21V18.9375ZM23.8031 22.7625C24.2719 22.9969 24.5156 23.3719 24.5156 23.8594C24.5156 24.3469 24.2719 24.7219 23.8031 24.9562C23.5594 25.0875 23.25 25.125 22.4812 25.125H21.4687V23.8594V22.5937H22.4812C23.25 22.5937 23.5594 22.6312 23.8031 22.7625ZM24.8156 28.1812C25.3219 28.5562 25.5187 28.9594 25.4812 29.5406C25.4344 30.15 25.1812 30.5625 24.7125 30.7875C24.4594 30.9094 24.0844 30.9375 22.9312 30.9375H21.4687V29.4281V27.9281L23.0062 27.9562C24.4031 27.9844 24.5719 28.0031 24.8156 28.1812Z" fill="#DCECFF"/>
<path d="M37.875 26.8125V28.2188H39.4688H41.0625V26.8125V25.4062H39.4688H37.875V26.8125Z" fill="#DCECFF"/>
</g>
<defs>
<clipPath id="clip0_103_32">
<rect width="48" height="48" fill="white"/>
</clipPath>
</defs>
</svg>