<svg width="48" height="49" viewBox="0 0 48 49" fill="none" xmlns="http://www.w3.org/2000/svg">
<path d="M43.0687 11.0741L37.0687 5.07409C36.7844 4.79241 36.4003 4.6344 36 4.6344C35.5997 4.6344 35.2156 4.79241 34.9313 5.07409L16.9313 23.0741C16.6527 23.3598 16.4978 23.7438 16.5 24.1428V30.1428C16.5 30.5407 16.658 30.9222 16.9393 31.2035C17.2206 31.4848 17.6022 31.6428 18 31.6428H24C24.3991 31.6451 24.783 31.4902 25.0687 31.2116L43.0687 13.2116C43.3504 12.9272 43.5084 12.5431 43.5084 12.1428C43.5084 11.7426 43.3504 11.3585 43.0687 11.0741V11.0741ZM23.3812 28.6428H19.5V24.7616L31.5 12.7616L35.3812 16.6428L23.3812 28.6428ZM37.5 14.5241L33.6188 10.6428L36 8.26159L39.8812 12.1428L37.5 14.5241ZM42 22.6428V39.1428C42 39.9385 41.6839 40.7015 41.1213 41.2642C40.5587 41.8268 39.7956 42.1428 39 42.1428H9C8.20435 42.1428 7.44129 41.8268 6.87868 41.2642C6.31607 40.7015 6 39.9385 6 39.1428V9.14284C6 8.34719 6.31607 7.58413 6.87868 7.02152C7.44129 6.45891 8.20435 6.14284 9 6.14284H25.5C25.8978 6.14284 26.2794 6.30087 26.5607 6.58218C26.842 6.86348 27 7.24501 27 7.64284C27 8.04066 26.842 8.42219 26.5607 8.7035C26.2794 8.9848 25.8978 9.14284 25.5 9.14284H9V39.1428H39V22.6428C39 22.245 39.158 21.8635 39.4393 21.5822C39.7206 21.3009 40.1022 21.1428 40.5 21.1428C40.8978 21.1428 41.2794 21.3009 41.5607 21.5822C41.842 21.8635 42 22.245 42 22.6428V22.6428Z" fill="#DCECFF"/>
</svg>
