<svg width="24" height="25" viewBox="0 0 24 25" fill="none" xmlns="http://www.w3.org/2000/svg">
<path d="M15.75 1.64282C14.6959 1.64258 13.6565 1.88925 12.7149 2.36305C11.7734 2.83686 10.9559 3.52463 10.328 4.37126C9.7001 5.21788 9.27925 6.19982 9.09917 7.23837C8.91909 8.27693 8.98479 9.34323 9.291 10.3518L1.5 18.1428V22.6428H6L13.791 14.8518C14.7194 15.1336 15.6977 15.212 16.6591 15.0815C17.6206 14.9511 18.5426 14.6149 19.3624 14.0959C20.1821 13.5768 20.8804 12.8872 21.4095 12.0739C21.9386 11.2606 22.2862 10.3428 22.4285 9.38307C22.5709 8.42331 22.5046 7.44415 22.2343 6.51231C21.964 5.58046 21.496 4.71785 20.8622 3.98324C20.2283 3.24864 19.4436 2.65931 18.5614 2.25543C17.6792 1.85155 16.7203 1.6426 15.75 1.64282ZM15.75 13.6428C15.2336 13.6425 14.7201 13.5662 14.226 13.4163L13.3657 13.1553L12.7305 13.7906L10.3448 16.1763L9.3105 15.1428L8.25 16.2033L9.28425 17.2376L8.09475 18.4271L7.0605 17.3928L6 18.4533L7.03425 19.4876L5.379 21.1428H3V18.7638L10.3515 11.4123L10.9875 10.7771L10.7265 9.91682C10.4059 8.86007 10.4268 7.72914 10.786 6.6849C11.1453 5.64066 11.8247 4.73629 12.7275 4.10044C13.6304 3.46459 14.7108 3.12963 15.815 3.14322C16.9192 3.1568 17.9911 3.51824 18.878 4.17611C19.765 4.83398 20.4219 5.75479 20.7554 6.80755C21.0888 7.86031 21.0818 8.99141 20.7354 10.04C20.3889 11.0885 19.7206 12.0011 18.8256 12.6479C17.9305 13.2948 16.8543 13.6429 15.75 13.6428Z" fill="#DCECFF"/>
<path d="M16.5 9.14282C17.3284 9.14282 18 8.47125 18 7.64282C18 6.8144 17.3284 6.14282 16.5 6.14282C15.6716 6.14282 15 6.8144 15 7.64282C15 8.47125 15.6716 9.14282 16.5 9.14282Z" fill="#DCECFF"/>
</svg>