<svg xmlns="http://www.w3.org/2000/svg" width="24" height="24" fill="none" viewBox="0 0 24 24"><path fill="#dcecff" d="M13.6605 15.252C12.2811 16.2328 10.5835 16.6595 8.90426 16.4476C7.22502 16.2357 5.68665 15.4007 4.59404 14.1081C3.50143 12.8154 2.93433 11.1595 3.00512 9.4684C3.07591 7.77732 3.77942 6.17455 4.97624 4.97774C6.17306 3.78092 7.77583 3.0774 9.4669 3.00661C11.158 2.93582 12.8139 3.50293 14.1066 4.59554C15.3992 5.68815 16.2342 7.22651 16.4461 8.90576C16.658 10.585 16.2313 12.2826 15.2505 13.662L20.67 19.08C20.7805 19.183 20.8692 19.3072 20.9307 19.4452C20.9922 19.5832 21.0252 19.7322 21.0279 19.8832C21.0306 20.0343 21.0028 20.1843 20.9462 20.3244C20.8896 20.4645 20.8054 20.5917 20.6986 20.6986C20.5917 20.8054 20.4645 20.8896 20.3244 20.9462C20.1843 21.0028 20.0343 21.0306 19.8832 21.0279C19.7322 21.0252 19.5832 20.9922 19.4452 20.9307C19.3072 20.8692 19.183 20.7805 19.08 20.67L13.6605 15.252ZM14.25 9.75C14.25 8.55653 13.7759 7.41194 12.932 6.56802C12.0881 5.72411 10.9435 5.25 9.75001 5.25C8.55653 5.25 7.41194 5.72411 6.56803 6.56802C5.72411 7.41194 5.25001 8.55653 5.25001 9.75C5.25001 10.9435 5.72411 12.0881 6.56803 12.932C7.41194 13.7759 8.55653 14.25 9.75001 14.25C10.9435 14.25 12.0881 13.7759 12.932 12.932C13.7759 12.0881 14.25 10.9435 14.25 9.75Z"/></svg>