<svg width="32" height="32" viewBox="0 0 32 32" fill="none" xmlns="http://www.w3.org/2000/svg">
<path d="M16 2.66669C14.6815 2.66669 13.3925 3.05768 12.2962 3.79022C11.1999 4.52277 10.3454 5.56396 9.8408 6.78213C9.33622 8.0003 9.2042 9.34075 9.46143 10.634C9.71867 11.9272 10.3536 13.115 11.286 14.0474C12.2183 14.9797 13.4062 15.6147 14.6994 15.8719C15.9926 16.1292 17.333 15.9971 18.5512 15.4926C19.7694 14.988 20.8106 14.1335 21.5431 13.0372C22.2757 11.9408 22.6667 10.6519 22.6667 9.33335C22.6667 7.56524 21.9643 5.86955 20.714 4.61931C19.4638 3.36907 17.7681 2.66669 16 2.66669V2.66669ZM16 13.3334C15.2089 13.3334 14.4355 13.0988 13.7777 12.6592C13.1199 12.2197 12.6072 11.595 12.3045 10.8641C12.0017 10.1332 11.9225 9.32892 12.0769 8.55299C12.2312 7.77707 12.6122 7.06434 13.1716 6.50493C13.731 5.94552 14.4437 5.56455 15.2196 5.41021C15.9956 5.25587 16.7998 5.33509 17.5307 5.63784C18.2616 5.94059 18.8864 6.45328 19.3259 7.11107C19.7654 7.76887 20 8.54223 20 9.33335C20 10.3942 19.5786 11.4116 18.8284 12.1618C18.0783 12.9119 17.0609 13.3334 16 13.3334V13.3334ZM28 28V26.6667C28 24.1913 27.0167 21.8174 25.2663 20.067C23.516 18.3167 21.142 17.3334 18.6667 17.3334H13.3333C10.858 17.3334 8.48401 18.3167 6.73367 20.067C4.98333 21.8174 4 24.1913 4 26.6667V28H6.66667V26.6667C6.66667 24.8986 7.36905 23.2029 8.61929 21.9526C9.86953 20.7024 11.5652 20 13.3333 20H18.6667C20.4348 20 22.1305 20.7024 23.3807 21.9526C24.631 23.2029 25.3333 24.8986 25.3333 26.6667V28H28Z" />
</svg>
