<?xml version="1.0" encoding="UTF-8"?>
<svg xmlns="http://www.w3.org/2000/svg" xmlns:xlink="http://www.w3.org/1999/xlink" width="32px" height="32px" viewBox="0 0 32 32" version="1.1">
<g id="surface1">
<path style=" stroke:none;fill-rule:nonzero;fill-opacity:1;" d="M 16 16 C 17.589844 16 19.117188 15.367188 20.242188 14.242188 C 21.367188 13.117188 22 11.589844 22 10 C 22 8.410156 21.367188 6.882812 20.242188 5.757812 C 19.117188 4.632812 17.589844 4 16 4 C 14.410156 4 12.882812 4.632812 11.757812 5.757812 C 10.632812 6.882812 10 8.410156 10 10 C 10 11.589844 10.632812 13.117188 11.757812 14.242188 C 12.882812 15.367188 14.410156 16 16 16 Z M 20 10 C 20 11.0625 19.578125 12.078125 18.828125 12.828125 C 18.078125 13.578125 17.0625 14 16 14 C 14.9375 14 13.921875 13.578125 13.171875 12.828125 C 12.421875 12.078125 12 11.0625 12 10 C 12 8.9375 12.421875 7.921875 13.171875 7.171875 C 13.921875 6.421875 14.9375 6 16 6 C 17.0625 6 18.078125 6.421875 18.828125 7.171875 C 19.578125 7.921875 20 8.9375 20 10 Z M 28 26 C 28 28 26 28 26 28 L 6 28 C 6 28 4 28 4 26 C 4 24 6 18 16 18 C 26 18 28 24 28 26 Z M 26 25.992188 C 25.996094 25.5 25.691406 24.019531 24.335938 22.664062 C 23.03125 21.359375 20.578125 20 16 20 C 11.421875 20 8.96875 21.359375 7.664062 22.664062 C 6.308594 24.019531 6.003906 25.5 6 25.992188 Z M 26 25.992188 "/>
</g>
</svg>
