<svg width="48" height="48" viewBox="0 0 48 48" fill="none" xmlns="http://www.w3.org/2000/svg">
<path d="M24 24C26.3869 24 28.6761 23.0518 30.364 21.364C32.0518 19.6761 33 17.3869 33 15C33 12.6131 32.0518 10.3239 30.364 8.63604C28.6761 6.94821 26.3869 6 24 6C21.6131 6 19.3239 6.94821 17.636 8.63604C15.9482 10.3239 15 12.6131 15 15C15 17.3869 15.9482 19.6761 17.636 21.364C19.3239 23.0518 21.6131 24 24 24ZM30 15C30 16.5913 29.3679 18.1174 28.2426 19.2426C27.1174 20.3679 25.5913 21 24 21C22.4087 21 20.8826 20.3679 19.7574 19.2426C18.6321 18.1174 18 16.5913 18 15C18 13.4087 18.6321 11.8826 19.7574 10.7574C20.8826 9.63214 22.4087 9 24 9C25.5913 9 27.1174 9.63214 28.2426 10.7574C29.3679 11.8826 30 13.4087 30 15ZM42 39C42 42 39 42 39 42H9C9 42 6 42 6 39C6 36 9 27 24 27C39 27 42 36 42 39ZM39 38.988C38.997 38.25 38.538 36.03 36.504 33.996C34.548 32.04 30.867 30 24 30C17.13 30 13.452 32.04 11.496 33.996C9.462 36.03 9.006 38.25 9 38.988H39Z" fill="#DCECFF"/>
</svg>