<?xml version="1.0" encoding="UTF-8"?>
<svg xmlns="http://www.w3.org/2000/svg" xmlns:xlink="http://www.w3.org/1999/xlink" width="32px" height="32px" viewBox="0 0 32 36" version="1.1">
<g id="surface1">
<path style=" stroke:none;fill-rule:nonzero;fill-opacity:1;" d="M 19.429688 21.375 L 12.570312 21.375 C 5.628906 21.375 0 26.914062 0 33.75 C 0 34.992188 1.023438 36 2.285156 36 L 29.714844 36 C 30.976562 36 32 34.992188 32 33.75 C 32 26.914062 26.371094 21.375 19.429688 21.375 Z M 3.5 32.625 C 4.0625 28.1875 7.914062 24.75 12.570312 24.75 L 19.429688 24.75 C 24.082031 24.75 27.9375 28.191406 28.5 32.625 Z M 16 18 C 21.050781 18 25.144531 13.96875 25.144531 9 C 25.144531 4.03125 21.050781 0 16 0 C 10.949219 0 6.855469 4.03125 6.855469 9 C 6.855469 13.972656 10.949219 18 16 18 Z M 16 3.375 C 19.152344 3.375 21.714844 5.898438 21.714844 9 C 21.714844 12.101562 19.152344 14.625 16 14.625 C 12.847656 14.625 10.285156 12.101562 10.285156 9 C 10.285156 5.898438 12.851562 3.375 16 3.375 Z M 16 3.375 "/>
</g>
</svg>
