<svg xmlns="http://www.w3.org/2000/svg" xmlns:xlink="http://www.w3.org/1999/xlink" width="32" height="32" version="1.1" viewBox="0 0 32 32"><g id="surface1"><path style="stroke:none;fill-rule:nonzero;fill-opacity:1" d="M 31.644531 10.21875 C 31.292969 9.398438 30.71875 8.699219 29.988281 8.207031 C 29.625 7.960938 29.21875 7.761719 28.789062 7.632812 C 28.605469 7.574219 28.425781 7.53125 28.238281 7.5 L 28.238281 6.425781 C 28.238281 5.773438 28.105469 5.15625 27.867188 4.585938 C 27.511719 3.738281 26.914062 3.023438 26.164062 2.511719 C 25.789062 2.257812 25.367188 2.054688 24.925781 1.917969 C 24.480469 1.78125 24.011719 1.707031 23.523438 1.707031 L 23.519531 1.707031 C 23.511719 1.707031 23.507812 1.707031 23.5 1.707031 C 23.210938 1.707031 22.929688 1.730469 22.644531 1.789062 L 3.851562 5 L 3.832031 5.007812 C 3.273438 5.113281 2.757812 5.3125 2.292969 5.585938 C 1.601562 6.007812 1.023438 6.585938 0.625 7.289062 C 0.226562 7.980469 0 8.789062 0 9.636719 L 0 25.710938 C 0 26.335938 0.125 26.945312 0.363281 27.492188 C 0.710938 28.3125 1.289062 29.011719 2.019531 29.507812 C 2.382812 29.75 2.789062 29.949219 3.21875 30.082031 C 3.648438 30.210938 4.105469 30.289062 4.574219 30.289062 L 27.429688 30.289062 C 28.054688 30.289062 28.664062 30.164062 29.210938 29.925781 C 30.03125 29.574219 30.730469 29 31.226562 28.269531 C 31.46875 27.90625 31.667969 27.5 31.800781 27.070312 C 31.929688 26.636719 32.007812 26.179688 32.007812 25.710938 L 32.007812 12 C 32.007812 11.375 31.882812 10.769531 31.644531 10.21875 Z M 4.261719 7.261719 L 23.054688 4.050781 L 23.074219 4.042969 C 23.226562 4.011719 23.375 4 23.53125 4 L 23.550781 4 C 23.886719 4 24.207031 4.070312 24.492188 4.1875 C 24.925781 4.367188 25.300781 4.679688 25.5625 5.070312 C 25.695312 5.261719 25.800781 5.476562 25.867188 5.699219 C 25.9375 5.925781 25.976562 6.167969 25.976562 6.425781 L 25.976562 7.425781 L 4.570312 7.425781 C 4.199219 7.425781 3.832031 7.46875 3.480469 7.554688 C 3.71875 7.417969 3.980469 7.320312 4.261719 7.261719 Z M 29.707031 25.71875 C 29.707031 26.039062 29.644531 26.335938 29.523438 26.605469 C 29.351562 27.011719 29.0625 27.367188 28.695312 27.613281 C 28.511719 27.738281 28.3125 27.832031 28.09375 27.898438 C 27.882812 27.96875 27.648438 28 27.414062 28 L 4.570312 28 C 4.25 28 3.949219 27.9375 3.679688 27.820312 C 3.273438 27.644531 2.917969 27.355469 2.675781 26.988281 C 2.550781 26.804688 2.457031 26.605469 2.386719 26.386719 C 2.320312 26.175781 2.289062 25.945312 2.289062 25.707031 L 2.289062 12 C 2.289062 11.679688 2.351562 11.382812 2.46875 11.113281 C 2.644531 10.707031 2.929688 10.351562 3.300781 10.105469 C 3.480469 9.980469 3.679688 9.886719 3.898438 9.820312 C 4.113281 9.75 4.34375 9.71875 4.582031 9.71875 L 4.582031 9.710938 L 27.425781 9.710938 C 27.742188 9.710938 28.042969 9.773438 28.3125 9.894531 C 28.71875 10.070312 29.074219 10.355469 29.320312 10.726562 C 29.445312 10.90625 29.539062 11.105469 29.605469 11.324219 C 29.675781 11.539062 29.707031 11.769531 29.707031 12.007812 Z M 29.707031 25.71875"/><path style="stroke:none;fill-rule:nonzero;fill-opacity:1" d="M 26.289062 18.855469 C 26.289062 20.121094 25.261719 21.144531 24 21.144531 C 22.738281 21.144531 21.710938 20.121094 21.710938 18.855469 C 21.710938 17.59375 22.738281 16.570312 24 16.570312 C 25.261719 16.570312 26.289062 17.59375 26.289062 18.855469 Z M 26.289062 18.855469"/></g></svg>