<svg xmlns="http://www.w3.org/2000/svg" width="49" height="49" fill="none" viewBox="0 0 49 49"><g clip-path="url(#clip0_102_287)"><path fill="#F7931A" d="M48.2727 29.9031C45.0672 42.7604 32.0449 50.5851 19.1862 47.3789C6.33269 44.1734 -1.49206 31.1504 1.71494 18.2939C4.91894 5.43512 17.9412 -2.39038 30.7962 0.815121C43.6542 4.02062 51.4782 17.0451 48.2727 29.9031Z"/><path fill="#fff" d="M35.5753 20.6782C36.0531 17.4847 33.6216 15.7679 30.2968 14.6227L31.3753 10.2967L28.7421 9.6404L27.6921 13.8524C26.9998 13.6799 26.2888 13.5171 25.5823 13.3559L26.6398 9.11615L24.0081 8.4599L22.9288 12.7844C22.3558 12.6539 21.7933 12.5249 21.2473 12.3892L21.2503 12.3757L17.6188 11.4689L16.9183 14.2814C16.9183 14.2814 18.8721 14.7291 18.8308 14.7569C19.8973 15.0231 20.0901 15.7289 20.0578 16.2884L18.8293 21.2167C18.9028 21.2354 18.9981 21.2624 19.1031 21.3044C19.0153 21.2826 18.9216 21.2586 18.8248 21.2354L17.1028 28.1391C16.9723 28.4631 16.6416 28.9492 15.8961 28.7647C15.9223 28.8029 13.9821 28.2869 13.9821 28.2869L12.6748 31.3012L16.1016 32.1554C16.7391 32.3152 17.3638 32.4824 17.9788 32.6399L16.8891 37.0154L19.5193 37.6716L20.5986 33.3427C21.3171 33.5377 22.0146 33.7176 22.6971 33.8871L21.6216 38.1959L24.2548 38.8521L25.3446 34.4849C29.8348 35.3347 33.2113 34.9919 34.6326 30.9306C35.7778 27.6606 34.5756 25.7744 32.2131 24.5444C33.9336 24.1476 35.2296 23.0159 35.5753 20.6782ZM29.5588 29.1149C28.7451 32.3849 23.2393 30.6171 21.4543 30.1739L22.9003 24.3771C24.6853 24.8226 30.4093 25.7047 29.5588 29.1149ZM30.3733 20.6309C29.6308 23.6054 25.0483 22.0941 23.5618 21.7236L24.8728 16.4661C26.3593 16.8366 31.1466 17.5282 30.3733 20.6309Z"/></g><defs><clipPath id="clip0_102_287"><rect width="48" height="48" fill="#fff" transform="translate(0.993164 0.0974121)"/></clipPath></defs></svg>