<svg xmlns="http://www.w3.org/2000/svg" width="48" height="49" fill="none" viewBox="0 0 48 49"><path fill="#dcecff" fill-rule="evenodd" d="M35 40.1428C36.3261 40.1428 37.5979 39.616 38.5355 38.6784C39.4732 37.7407 40 36.4689 40 35.1428C40 33.8167 39.4732 32.545 38.5355 31.6073C37.5979 30.6696 36.3261 30.1428 35 30.1428C33.6739 30.1428 32.4021 30.6696 31.4645 31.6073C30.5268 32.545 30 33.8167 30 35.1428C30 36.4689 30.5268 37.7407 31.4645 38.6784C32.4021 39.616 33.6739 40.1428 35 40.1428ZM35 42.1428C36.8565 42.1428 38.637 41.4053 39.9497 40.0926C41.2625 38.7798 42 36.9993 42 35.1428C42 33.2863 41.2625 31.5058 39.9497 30.1931C38.637 28.8803 36.8565 28.1428 35 28.1428C33.1435 28.1428 31.363 28.8803 30.0503 30.1931C28.7375 31.5058 28 33.2863 28 35.1428C28 36.9993 28.7375 38.7798 30.0503 40.0926C31.363 41.4053 33.1435 42.1428 35 42.1428V42.1428Z" clip-rule="evenodd"/><path fill="#dcecff" fill-rule="evenodd" d="M35 31.6428C35.2652 31.6428 35.5196 31.7482 35.7071 31.9357C35.8946 32.1233 36 32.3776 36 32.6428V34.7288L36.707 35.4358C36.8892 35.6244 36.99 35.877 36.9877 36.1392C36.9854 36.4014 36.8802 36.6522 36.6948 36.8376C36.5094 37.0231 36.2586 37.1282 35.9964 37.1305C35.7342 37.1328 35.4816 37.032 35.293 36.8498L34 35.5568V32.6428C34 32.3776 34.1054 32.1233 34.2929 31.9357C34.4804 31.7482 34.7348 31.6428 35 31.6428Z" clip-rule="evenodd"/><path fill="#dcecff" fill-rule="evenodd" d="M14 23.1428H12V25.1428H14V23.1428ZM12 21.1428C11.4696 21.1428 10.9609 21.3535 10.5858 21.7286C10.2107 22.1037 10 22.6124 10 23.1428V25.1428C10 25.6733 10.2107 26.182 10.5858 26.557C10.9609 26.9321 11.4696 27.1428 12 27.1428H14C14.5304 27.1428 15.0391 26.9321 15.4142 26.557C15.7893 26.182 16 25.6733 16 25.1428V23.1428C16 22.6124 15.7893 22.1037 15.4142 21.7286C15.0391 21.3535 14.5304 21.1428 14 21.1428H12Z" clip-rule="evenodd"/><path fill="#dcecff" fill-rule="evenodd" d="M22 23.1428H20V25.1428H22V23.1428ZM20 21.1428C19.4696 21.1428 18.9609 21.3535 18.5858 21.7286C18.2107 22.1037 18 22.6124 18 23.1428V25.1428C18 25.6733 18.2107 26.182 18.5858 26.557C18.9609 26.9321 19.4696 27.1428 20 27.1428H22C22.5304 27.1428 23.0391 26.9321 23.4142 26.557C23.7893 26.182 24 25.6733 24 25.1428V23.1428C24 22.6124 23.7893 22.1037 23.4142 21.7286C23.0391 21.3535 22.5304 21.1428 22 21.1428H20Z" clip-rule="evenodd"/><path fill="#dcecff" fill-rule="evenodd" d="M30 23.1428H28V25.1428H30V23.1428ZM28 21.1428C27.4696 21.1428 26.9609 21.3535 26.5858 21.7286C26.2107 22.1037 26 22.6124 26 23.1428V25.1428C26 25.6733 26.2107 26.182 26.5858 26.557C26.9609 26.9321 27.4696 27.1428 28 27.1428H30C30.5304 27.1428 31.0391 26.9321 31.4142 26.557C31.7893 26.182 32 25.6733 32 25.1428V23.1428C32 22.6124 31.7893 22.1037 31.4142 21.7286C31.0391 21.3535 30.5304 21.1428 30 21.1428H28Z" clip-rule="evenodd"/><path fill="#dcecff" fill-rule="evenodd" d="M14 31.1428H12V33.1428H14V31.1428ZM12 29.1428C11.4696 29.1428 10.9609 29.3535 10.5858 29.7286C10.2107 30.1037 10 30.6124 10 31.1428V33.1428C10 33.6733 10.2107 34.182 10.5858 34.557C10.9609 34.9321 11.4696 35.1428 12 35.1428H14C14.5304 35.1428 15.0391 34.9321 15.4142 34.557C15.7893 34.182 16 33.6733 16 33.1428V31.1428C16 30.6124 15.7893 30.1037 15.4142 29.7286C15.0391 29.3535 14.5304 29.1428 14 29.1428H12Z" clip-rule="evenodd"/><path fill="#dcecff" fill-rule="evenodd" d="M22 31.1428H20V33.1428H22V31.1428ZM20 29.1428C19.4696 29.1428 18.9609 29.3535 18.5858 29.7286C18.2107 30.1037 18 30.6124 18 31.1428V33.1428C18 33.6733 18.2107 34.182 18.5858 34.557C18.9609 34.9321 19.4696 35.1428 20 35.1428H22C22.5304 35.1428 23.0391 34.9321 23.4142 34.557C23.7893 34.182 24 33.6733 24 33.1428V31.1428C24 30.6124 23.7893 30.1037 23.4142 29.7286C23.0391 29.3535 22.5304 29.1428 22 29.1428H20Z" clip-rule="evenodd"/><path fill="#dcecff" fill-rule="evenodd" d="M8 12.1428C8 11.8776 8.10536 11.6233 8.29289 11.4357C8.48043 11.2482 8.73478 11.1428 9 11.1428H14V9.14282H9C8.20435 9.14282 7.44129 9.45889 6.87868 10.0215C6.31607 10.5841 6 11.3472 6 12.1428V36.1428C6 36.9385 6.31607 37.7015 6.87868 38.2641C7.44129 38.8268 8.20435 39.1428 9 39.1428H29.255C28.8285 38.532 28.5028 37.8568 28.29 37.1428H9C8.73478 37.1428 8.48043 37.0375 8.29289 36.8499C8.10536 36.6624 8 36.408 8 36.1428V12.1428ZM34 28.2128C34.6633 28.1179 35.3367 28.1179 36 28.2128V12.1428C36 11.3472 35.6839 10.5841 35.1213 10.0215C34.5587 9.45889 33.7956 9.14282 33 9.14282H30V11.1428H33C33.2652 11.1428 33.5196 11.2482 33.7071 11.4357C33.8946 11.6233 34 11.8776 34 12.1428V28.2128ZM16 11.1428H26.563V9.14282H16V11.1428Z" clip-rule="evenodd"/><path fill="#dcecff" fill-rule="evenodd" d="M36 18.1428H8V16.1428H36V18.1428Z" clip-rule="evenodd"/><path fill="#dcecff" d="M12 7.14282C12 6.87761 12.1054 6.62325 12.2929 6.43572C12.4804 6.24818 12.7348 6.14282 13 6.14282C13.2652 6.14282 13.5196 6.24818 13.7071 6.43572C13.8946 6.62325 14 6.87761 14 7.14282V12.1428C14 12.408 13.8946 12.6624 13.7071 12.8499C13.5196 13.0375 13.2652 13.1428 13 13.1428C12.7348 13.1428 12.4804 13.0375 12.2929 12.8499C12.1054 12.6624 12 12.408 12 12.1428V7.14282Z"/><path fill="#dcecff" d="M26 7.14282C26 6.87761 26.1054 6.62325 26.2929 6.43572C26.4804 6.24818 26.7348 6.14282 27 6.14282C27.2652 6.14282 27.5196 6.24818 27.7071 6.43572C27.8946 6.62325 28 6.87761 28 7.14282V12.1428C28 12.408 27.8946 12.6624 27.7071 12.8499C27.5196 13.0375 27.2652 13.1428 27 13.1428C26.7348 13.1428 26.4804 13.0375 26.2929 12.8499C26.1054 12.6624 26 12.408 26 12.1428V7.14282Z"/></svg>