<?xml version="1.0" encoding="UTF-8"?>
<svg xmlns="http://www.w3.org/2000/svg" xmlns:xlink="http://www.w3.org/1999/xlink" width="36px" fill="none" height="36px" viewBox="0 0 36 36" version="1.1">
<g id="surface1">
<path d="M 0 6.75 C 0 5.507812 1.152344 4.5 2.570312 4.5 L 33.429688 4.5 C 34.851562 4.5 36 5.507812 36 6.75 C 36 7.996094 34.851562 9 33.429688 9 L 2.570312 9 C 1.152344 9 0 7.996094 0 6.75 Z M 0 18 C 0 16.753906 1.152344 15.75 2.570312 15.75 L 33.429688 15.75 C 34.851562 15.75 36 16.753906 36 18 C 36 19.246094 34.851562 20.25 33.429688 20.25 L 2.570312 20.25 C 1.152344 20.25 0 19.246094 0 18 Z M 33.429688 31.5 L 2.570312 31.5 C 1.152344 31.5 0 30.496094 0 29.25 C 0 28.003906 1.152344 27 2.570312 27 L 33.429688 27 C 34.851562 27 36 28.003906 36 29.25 C 36 30.496094 34.851562 31.5 33.429688 31.5 Z M 33.429688 31.5 " fill="#DCECFF"/>
</g>
</svg>
