<svg width="24" height="25" viewBox="0 0 24 25" fill="none" xmlns="http://www.w3.org/2000/svg">
<path d="M12.012 2.39282C12.746 2.40082 13.477 2.48582 14.194 2.64582C14.3465 2.67987 14.4846 2.76072 14.5889 2.87708C14.6933 2.99344 14.7587 3.13949 14.776 3.29482L14.946 4.82182C14.97 5.03711 15.0442 5.24375 15.1626 5.42513C15.281 5.60651 15.4404 5.75755 15.6278 5.86611C15.8153 5.97467 16.0256 6.03772 16.2419 6.05017C16.4581 6.06263 16.6743 6.02414 16.873 5.93782L18.274 5.32282C18.4162 5.26017 18.5744 5.24326 18.7267 5.27444C18.879 5.30561 19.0178 5.38332 19.124 5.49682C20.1359 6.57791 20.8895 7.87443 21.328 9.28882C21.374 9.43746 21.3726 9.59672 21.324 9.74453C21.2755 9.89235 21.1821 10.0214 21.057 10.1138L19.815 11.0298C19.6403 11.1581 19.4983 11.3257 19.4004 11.5191C19.3025 11.7124 19.2515 11.9261 19.2515 12.1428C19.2515 12.3595 19.3025 12.5732 19.4004 12.7666C19.4983 12.9599 19.6403 13.1275 19.815 13.2558L21.058 14.1708C21.1835 14.2632 21.2772 14.3923 21.3259 14.5404C21.3747 14.6884 21.3761 14.8479 21.33 14.9968C20.8913 16.4111 20.1378 17.7076 19.126 18.7888C19.0201 18.9021 18.8816 18.9797 18.7298 19.0111C18.5779 19.0424 18.4201 19.0259 18.278 18.9638L16.871 18.3468C16.6726 18.2598 16.4565 18.2208 16.2402 18.2328C16.0238 18.2448 15.8134 18.3076 15.6259 18.4161C15.4383 18.5246 15.279 18.6757 15.1607 18.8572C15.0424 19.0387 14.9685 19.2455 14.945 19.4608L14.776 20.9868C14.7589 21.1405 14.6948 21.2851 14.5924 21.4009C14.49 21.5167 14.3544 21.5981 14.204 21.6338C12.7555 21.9784 11.2464 21.9784 9.79797 21.6338C9.64757 21.5981 9.5119 21.5167 9.4095 21.4009C9.30711 21.2851 9.24301 21.1405 9.22597 20.9868L9.05797 19.4628C9.03347 19.248 8.95892 19.0419 8.84029 18.8612C8.72166 18.6804 8.56228 18.53 8.37495 18.422C8.18762 18.3141 7.97757 18.2516 7.76169 18.2395C7.54581 18.2275 7.33013 18.2663 7.13197 18.3528L5.72597 18.9688C5.58375 19.0311 5.4257 19.0477 5.27363 19.0164C5.12156 18.9851 4.98296 18.9073 4.87697 18.7938C3.86468 17.7115 3.11111 16.4136 2.67297 14.9978C2.62687 14.8489 2.62829 14.6894 2.67703 14.5414C2.72578 14.3933 2.81943 14.2642 2.94497 14.1718L4.18797 13.2558C4.36282 13.1277 4.50501 12.9601 4.60302 12.7667C4.70103 12.5734 4.75211 12.3596 4.75211 12.1428C4.75211 11.926 4.70103 11.7123 4.60302 11.5189C4.50501 11.3255 4.36282 11.158 4.18797 11.0298L2.94497 10.1158C2.81961 10.0233 2.72616 9.89411 2.67759 9.74609C2.62903 9.59807 2.62776 9.4386 2.67397 9.28982C3.1125 7.87545 3.86606 6.57893 4.87797 5.49782C4.98416 5.38432 5.12298 5.30661 5.27526 5.27544C5.42753 5.24426 5.58573 5.26117 5.72797 5.32382L7.12797 5.93882C7.32699 6.02509 7.54347 6.06348 7.76002 6.05091C7.97657 6.03833 8.18715 5.97514 8.37484 5.86642C8.56254 5.75769 8.72212 5.60646 8.84076 5.42486C8.9594 5.24327 9.0338 5.03638 9.05797 4.82082L9.22797 3.29482C9.24513 3.13918 9.31058 2.99281 9.41513 2.87624C9.51968 2.75967 9.6581 2.67875 9.81097 2.64482C10.528 2.48582 11.261 2.40182 12.012 2.39282ZM12.012 3.89282C11.5584 3.89815 11.1058 3.93726 10.658 4.00982L10.549 4.98682C10.499 5.43639 10.3442 5.86792 10.0968 6.24661C9.84941 6.6253 9.51649 6.94055 9.12488 7.16691C8.73327 7.39327 8.29393 7.52442 7.84232 7.54976C7.3907 7.57511 6.93945 7.49395 6.52497 7.31282L5.62697 6.91882C5.05496 7.61294 4.59968 8.3955 4.27897 9.23582L5.07697 9.82282C5.44119 10.0905 5.73731 10.4401 5.94141 10.8434C6.14552 11.2467 6.25186 11.6923 6.25186 12.1443C6.25186 12.5963 6.14552 13.042 5.94141 13.4453C5.73731 13.8485 5.44119 14.1982 5.07697 14.4658L4.27797 15.0538C4.59797 15.8958 5.05397 16.6798 5.62597 17.3758L6.53097 16.9788C6.94446 16.7983 7.39456 16.7174 7.84504 16.7425C8.29553 16.7677 8.7338 16.8983 9.12459 17.1238C9.51538 17.3493 9.84776 17.6634 10.095 18.0409C10.3422 18.4183 10.4974 18.8485 10.548 19.2968L10.658 20.2808C11.547 20.4308 12.456 20.4308 13.345 20.2808L13.455 19.2968C13.5048 18.8479 13.6594 18.417 13.9064 18.0388C14.1534 17.6607 14.4858 17.3459 14.8769 17.1199C15.268 16.8939 15.7067 16.7631 16.1576 16.7379C16.6086 16.7126 17.0592 16.7938 17.473 16.9748L18.378 17.3708C18.9497 16.6763 19.4046 15.8934 19.725 15.0528L18.927 14.4648C18.5628 14.1972 18.2666 13.8475 18.0625 13.4443C17.8584 13.041 17.7521 12.5953 17.7521 12.1433C17.7521 11.6913 17.8584 11.2457 18.0625 10.8424C18.2666 10.4391 18.5628 10.0895 18.927 9.82182L19.723 9.23482C19.4023 8.3945 18.947 7.61194 18.375 6.91782L17.479 7.31082C17.0647 7.49217 16.6136 7.57357 16.1621 7.54844C15.7106 7.52331 15.2713 7.39236 14.8798 7.16616C14.4882 6.93996 14.1553 6.62485 13.908 6.24628C13.6607 5.8677 13.5058 5.43627 13.456 4.98682L13.346 4.01082C12.9052 3.93875 12.4596 3.89965 12.013 3.89382L12.012 3.89282ZM12 8.39282C12.9945 8.39282 13.9484 8.78791 14.6516 9.49117C15.3549 10.1944 15.75 11.1483 15.75 12.1428C15.75 13.1374 15.3549 14.0912 14.6516 14.7945C13.9484 15.4977 12.9945 15.8928 12 15.8928C11.0054 15.8928 10.0516 15.4977 9.34832 14.7945C8.64506 14.0912 8.24997 13.1374 8.24997 12.1428C8.24997 11.1483 8.64506 10.1944 9.34832 9.49117C10.0516 8.78791 11.0054 8.39282 12 8.39282ZM12 9.89282C11.4032 9.89282 10.8309 10.1299 10.409 10.5518C9.98702 10.9738 9.74997 11.5461 9.74997 12.1428C9.74997 12.7396 9.98702 13.3119 10.409 13.7338C10.8309 14.1558 11.4032 14.3928 12 14.3928C12.5967 14.3928 13.169 14.1558 13.591 13.7338C14.0129 13.3119 14.25 12.7396 14.25 12.1428C14.25 11.5461 14.0129 10.9738 13.591 10.5518C13.169 10.1299 12.5967 9.89282 12 9.89282Z" fill="currentColor"/>
</svg>