<?xml version="1.0" encoding="UTF-8"?>
<svg xmlns="http://www.w3.org/2000/svg" xmlns:xlink="http://www.w3.org/1999/xlink" width="32px" height="32px" viewBox="0 0 32 32" version="1.1">
<g id="surface1">
<path style="stroke:none;fill-rule:nonzero;" d="M 14.667969 20 L 17.332031 20 L 17.332031 22.667969 L 14.667969 22.667969 L 14.667969 20 M 14.667969 9.332031 L 17.332031 9.332031 L 17.332031 17.332031 L 14.667969 17.332031 L 14.667969 9.332031 M 16 2.667969 C 8.625 2.667969 2.667969 8.667969 2.667969 16 C 2.667969 23.363281 8.636719 29.332031 16 29.332031 C 23.363281 29.332031 29.332031 23.363281 29.332031 16 C 29.332031 8.636719 23.363281 2.667969 16 2.667969 M 16 26.667969 C 10.109375 26.667969 5.332031 21.890625 5.332031 16 C 5.332031 10.109375 10.109375 5.332031 16 5.332031 C 21.890625 5.332031 26.667969 10.109375 26.667969 16 C 26.667969 21.890625 21.890625 26.667969 16 26.667969 Z M 16 26.667969" fill="#dcecff" />
</g>
</svg>
